<svg xmlns="http://www.w3.org/2000/svg" viewBox="0 0 100 100">
  <defs>
    <linearGradient id="grad" x1="0%" y1="0%" x2="100%" y2="100%">
      <stop offset="0%" style="stop-color:#8b5cf6;stop-opacity:1" />
      <stop offset="100%" style="stop-color:#6366f1;stop-opacity:1" />
    </linearGradient>
  </defs>
  <!-- Brain icon -->
  <path d="M50 20 C35 20, 25 30, 25 45 C25 50, 27 54, 30 57 C27 60, 25 65, 25 70 C25 80, 30 85, 40 87 C38 90, 40 95, 45 95 C50 95, 52 90, 50 87 C60 85, 65 80, 65 70 C65 65, 63 60, 60 57 C63 54, 65 50, 65 45 C65 30, 55 20, 50 20 Z" fill="url(#grad)" />
  <!-- Sound waves -->
  <path d="M20 50 Q25 45, 30 50 T40 50" stroke="#ffffff" stroke-width="2" fill="none" opacity="0.8" />
  <path d="M60 50 Q65 45, 70 50 T80 50" stroke="#ffffff" stroke-width="2" fill="none" opacity="0.8" />
</svg>

